<?xml version="1.0" encoding="UTF-8"?>
<svg width="175px" height="176px" viewBox="0 0 175 176" version="1.1" xmlns="http://www.w3.org/2000/svg" xmlns:xlink="http://www.w3.org/1999/xlink">
    <title>Logo</title>
    <g id="Page-1" stroke="none" stroke-width="1" fill="none" fill-rule="evenodd">
        <g id="Logo">
            <path d="M174.745,88.161 C174.745,39.975 135.681,0.91 87.493,0.91 C39.304,0.91 0.241,39.975 0.241,88.161 C0.241,94.507 0.932,100.688 2.218,106.647 L47.07,61.797 L63.259,77.984 L104.423,36.82 L165.576,97.973 L165.832,98.228 L173.022,105.418 C174.144,99.838 174.745,94.072 174.745,88.161" id="Fill-1" fill="#E5C73E"></path>
            <polyline id="Fill-2" fill="#FFFFFE" points="9.624 114.657 46.944 77.335 90.371 171.976 69.215 167.804 43.889 160.951 25.117 142.775 9.624 114.657"></polyline>
            <polyline id="Fill-3" fill="#FFFFFE" points="66.236 90.934 103.558 53.613 146.982 148.253 132.382 157.114 100.502 137.228 81.729 119.053 66.236 90.934"></polyline>
            <path d="M13.845,115.951 L47.092,82.704 L47.189,82.8 L58.284,111.735 L51.424,124.626 L59.2,119.211 L47.601,135.83 L63.306,124.609 L70.794,141.544 L61.734,153.929 L74.089,148.949 L81.725,166.534 C50.582,164.294 24.46,143.945 13.845,115.951 Z M104.482,58.966 L116.448,91.668 L109.67,103.947 L117.217,98.862 L105.831,114.65 L121.079,104.107 L128.02,120.48 L119.135,132.239 L131.073,127.64 L139.249,147.296 C137.811,148.556 136.318,149.755 134.789,150.909 L83.654,107.243 L69.175,94.042 L104.367,58.85 L104.482,58.966 Z M165.229,106.521 C165.224,106.529 165.219,106.536 165.216,106.543 L104.423,45.751 L63.259,86.915 L47.07,70.727 L5.477,112.321 L5.477,112.322 L4.05,113.75 C15.02,149.395 48.202,175.308 87.446,175.308 C140.921,175.308 164.254,136.411 171.22,112.513 L165.229,106.521 L165.229,106.521 Z" id="Fill-4" fill="#34444C"></path>
        </g>
    </g>
</svg>